<svg xmlns="http://www.w3.org/2000/svg" height="591pt" version="1.1" viewBox="1 -96 591.62001 591" width="591pt">
<g id="surface1">
<path d="M 0 265.742188 L 20.414062 265.742188 L 47.972656 203.738281 L 0 194.296875 Z M 0 265.742188 " style=" stroke:none;fill-rule:nonzero;fill:rgb(76.470588%,78.823529%,81.960784%);fill-opacity:1;" />
<path d="M 565.933594 269.4375 L 562.410156 268.558594 C 555.113281 266.730469 548.613281 262.558594 543.90625 256.679688 L 493.996094 194.296875 C 478.492188 174.933594 455.039062 163.667969 430.238281 163.675781 L 0 163.675781 L 0 194.296875 L 47.972656 203.738281 L 207.480469 235.121094 L 281.089844 316.917969 C 292.703125 329.820312 309.25 337.1875 326.609375 337.1875 L 557.59375 337.1875 C 576.589844 337.199219 591.988281 321.816406 592 302.824219 C 592.011719 287.035156 581.261719 273.253906 565.933594 269.4375 Z M 565.933594 269.4375 " style=" stroke:none;fill-rule:nonzero;fill:rgb(86.666667%,21.960784%,10.196078%);fill-opacity:1;" />
<path d="M 285.785156 20.785156 L 306.195312 20.785156 L 306.195312 122.851562 L 285.785156 122.851562 Z M 285.785156 20.785156 " style=" stroke:none;fill-rule:nonzero;fill:rgb(64.313725%,69.019608%,74.901961%);fill-opacity:1;" />
<path d="M 387.847656 163.675781 L 204.132812 163.675781 L 228.800781 122.554688 C 232.484375 116.410156 239.128906 112.644531 246.304688 112.644531 L 345.675781 112.644531 C 352.851562 112.644531 359.496094 116.410156 363.179688 122.554688 Z M 387.847656 163.675781 " style=" stroke:none;fill-rule:nonzero;fill:rgb(76.862745%,19.215686%,9.019608%);fill-opacity:1;" />
<path d="M 61.238281 163.675781 L 0 163.675781 L 0 82.023438 L 30.621094 82.023438 Z M 61.238281 163.675781 " style=" stroke:none;fill-rule:nonzero;fill:rgb(81.568627%,84.313725%,87.45098%);fill-opacity:1;" />
<path d="M 377.640625 204.503906 L 418.46875 265.742188 L 357.230469 265.742188 L 316.402344 204.503906 Z M 377.640625 204.503906 " style=" stroke:none;fill-rule:nonzero;fill:rgb(26.27451%,58.039216%,80%);fill-opacity:1;" />
<path d="M 326.609375 337.1875 L 347.023438 337.1875 L 347.023438 388.222656 L 326.609375 388.222656 Z M 326.609375 337.1875 " style=" stroke:none;fill-rule:nonzero;fill:rgb(71.764706%,74.117647%,76.862745%);fill-opacity:1;" />
<path d="M 500.121094 337.1875 L 520.535156 337.1875 L 520.535156 388.222656 L 500.121094 388.222656 Z M 500.121094 337.1875 " style=" stroke:none;fill-rule:nonzero;fill:rgb(71.764706%,74.117647%,76.862745%);fill-opacity:1;" />
<path d="M 538.539062 398.429688 L 308.605469 398.429688 C 290.734375 398.46875 274.394531 388.375 266.441406 372.371094 L 284.710938 363.246094 C 289.203125 372.328125 298.46875 378.054688 308.605469 378.011719 L 538.539062 378.011719 C 548.675781 378.054688 557.941406 372.328125 562.433594 363.246094 L 580.703125 372.371094 C 572.75 388.375 556.410156 398.480469 538.539062 398.429688 Z M 538.539062 398.429688 " style=" stroke:none;fill-rule:nonzero;fill:rgb(71.764706%,74.117647%,76.862745%);fill-opacity:1;" />
<path d="M 465.675781 264.464844 L 554.359375 265.292969 C 550.335938 263.148438 546.785156 260.222656 543.90625 256.679688 L 502.164062 204.503906 L 428.675781 204.503906 Z M 465.675781 264.464844 " style=" stroke:none;fill-rule:nonzero;fill:rgb(26.27451%,58.039216%,80%);fill-opacity:1;" />
<path d="M 326.609375 337.1875 L 347.023438 337.1875 L 347.023438 357.601562 L 326.609375 357.601562 Z M 326.609375 337.1875 " style=" stroke:none;fill-rule:nonzero;fill:rgb(64.313725%,69.019608%,74.901961%);fill-opacity:1;" />
<path d="M 500.121094 337.1875 L 520.535156 337.1875 L 520.535156 357.601562 L 500.121094 357.601562 Z M 500.121094 337.1875 " style=" stroke:none;fill-rule:nonzero;fill:rgb(64.313725%,69.019608%,74.901961%);fill-opacity:1;" />
<path d="M 259.183594 41.199219 L 20.414062 41.199219 C 9.136719 41.199219 0 32.0625 0 20.785156 C 0 9.507812 9.136719 0.371094 20.414062 0.371094 L 259.183594 0.371094 C 263.21875 0.371094 267.15625 1.566406 270.515625 3.800781 L 295.988281 20.785156 L 270.472656 37.769531 C 267.125 40.003906 263.207031 41.1875 259.183594 41.199219 Z M 259.183594 41.199219 " style=" stroke:none;fill-rule:nonzero;fill:rgb(71.764706%,74.117647%,76.862745%);fill-opacity:1;" />
<path d="M 332.792969 0.371094 L 571.566406 0.371094 C 582.84375 0.371094 591.980469 9.507812 591.980469 20.785156 C 591.980469 32.0625 582.84375 41.199219 571.566406 41.199219 L 332.792969 41.199219 C 328.761719 41.199219 324.824219 40.003906 321.464844 37.769531 L 295.988281 20.785156 L 321.507812 3.800781 C 324.855469 1.578125 328.773438 0.382812 332.792969 0.371094 Z M 332.792969 0.371094 " style=" stroke:none;fill-rule:nonzero;fill:rgb(71.764706%,74.117647%,76.862745%);fill-opacity:1;" />
<path d="M 515.695312 264.9375 L 439.523438 222.089844 L 465.675781 264.464844 Z M 515.695312 264.9375 " style=" stroke:none;fill-rule:nonzero;fill:rgb(24.313725%,53.72549%,74.117647%);fill-opacity:1;" />
<path d="M 396.921875 265.742188 L 333.417969 230.019531 L 357.230469 265.742188 Z M 396.921875 265.742188 " style=" stroke:none;fill-rule:nonzero;fill:rgb(24.313725%,53.72549%,74.117647%);fill-opacity:1;" />
</g>
</svg>